<svg width="24" height="25" viewBox="0 0 24 25" fill="none" xmlns="http://www.w3.org/2000/svg">
<path d="M19.875 22.125H4.125C3.50156 22.125 3 21.6473 3 21.0536V19.9821C3 19.3884 3.50156 18.9107 4.125 18.9107H19.875C20.4984 18.9107 21 19.3884 21 19.9821V21.0536C21 21.6473 20.4984 22.125 19.875 22.125ZM16.7625 9.60268L13.6875 12.5313V3.19643C13.6875 2.60268 13.1859 2.125 12.5625 2.125H11.4375C10.8141 2.125 10.3125 2.60268 10.3125 3.19643V12.5313L7.2375 9.60268C6.79688 9.18304 6.08438 9.18304 5.64844 9.60268L4.85156 10.3616C4.41094 10.7813 4.41094 11.4598 4.85156 11.875L11.2031 17.9241C11.6437 18.3438 12.3562 18.3438 12.7922 17.9241L19.1437 11.875C19.5844 11.4554 19.5844 10.7768 19.1437 10.3616L18.3469 9.60268C17.9109 9.18304 17.1984 9.18304 16.7625 9.60268V9.60268Z" fill="#21C090"/>
</svg>
