<svg width="24" height="24" viewBox="0 0 24 24" fill="none" xmlns="http://www.w3.org/2000/svg">
<path d="M19 21.2308H5C4.44583 21.2308 4 20.7985 4 20.2611V19.2915C4 18.7541 4.44583 18.3218 5 18.3218H19C19.5542 18.3218 20 18.7541 20 19.2915V20.2611C20 20.7985 19.5542 21.2308 19 21.2308ZM7.76667 10.5849L10.5 7.93458V16.3826C10.5 16.9199 10.9458 17.3522 11.5 17.3522H12.5C13.0542 17.3522 13.5 16.9199 13.5 16.3826V7.93458L16.2333 10.5849C16.625 10.9647 17.2583 10.9647 17.6458 10.5849L18.3542 9.8981C18.7458 9.51832 18.7458 8.90422 18.3542 8.52848L12.7083 3.05406C12.3167 2.67428 11.6833 2.67428 11.2958 3.05406L5.64583 8.52848C5.25417 8.90826 5.25417 9.52236 5.64583 9.8981L6.35417 10.5849C6.74583 10.9647 7.37917 10.9647 7.76667 10.5849Z" fill="#FFAA5A"/>
</svg>
