<svg width="56" height="56" viewBox="0 0 56 56" fill="none" xmlns="http://www.w3.org/2000/svg">
<path d="M0 28C0 12.536 12.536 0 28 0V0C43.464 0 56 12.536 56 28V28C56 43.464 43.464 56 28 56V56C12.536 56 0 43.464 0 28V28Z" fill="#FFAA5A"/>
<path fill-rule="evenodd" clip-rule="evenodd" d="M41.6898 24.4045C42.3092 20.1337 39.1568 17.8378 34.8464 16.3062L36.2446 10.5208L32.8307 9.64322L31.4694 15.2761C30.5719 15.0454 29.6501 14.8278 28.7341 14.6121L30.1052 8.94212L26.6932 8.06448L25.2939 13.8478C24.5511 13.6733 23.8218 13.5008 23.1139 13.3192L23.1178 13.3012L18.4097 12.0886L17.5015 15.8498C17.5015 15.8498 20.0345 16.4486 19.981 16.4857C21.3637 16.8418 21.6136 17.7856 21.5718 18.5339L19.979 25.1246C20.0743 25.1497 20.1978 25.1858 20.3339 25.242L20.2182 25.2122L20.2181 25.2121C20.1389 25.1917 20.0569 25.1705 19.9732 25.1497L17.7407 34.3824C17.5715 34.8157 17.1427 35.4657 16.1761 35.2189C16.2102 35.2701 13.6947 34.58 13.6947 34.58L11.9999 38.6111L16.4426 39.7535C16.9388 39.8818 17.429 40.0136 17.9141 40.1441C18.2371 40.231 18.5577 40.3173 18.8764 40.4015L17.4635 46.253L20.8736 47.1306L22.2728 41.3413C23.2043 41.6021 24.1086 41.8428 24.9935 42.0695L23.5991 47.8317L27.0131 48.7094L28.4259 42.8689C34.2474 44.0053 38.6249 43.5469 40.4676 38.1156C41.9523 33.7425 40.3937 31.2199 37.3307 29.575C39.5613 29.0444 41.2416 27.5309 41.6898 24.4045ZM33.8896 35.6874C32.9216 39.6995 26.8335 38.0408 24.0478 37.2818C23.7972 37.2136 23.5733 37.1526 23.3823 37.1036L25.257 29.3514C25.4896 29.4113 25.7738 29.4771 26.0957 29.5516C28.9769 30.2185 34.8814 31.5852 33.8896 35.6874ZM26.6746 25.954C28.9971 26.5934 34.0631 27.988 34.9455 24.3414C35.8467 20.6115 30.9229 19.4872 28.5183 18.9381C28.2478 18.8763 28.0091 18.8218 27.8143 18.7717L26.1146 25.8028C26.2751 25.8441 26.4636 25.8959 26.6746 25.954Z" fill="white"/>
</svg>
