<svg width="57" height="56" viewBox="0 0 57 56" fill="none" xmlns="http://www.w3.org/2000/svg">
<path d="M0.767578 28C0.767578 12.536 13.3036 0 28.7676 0V0C44.2316 0 56.7676 12.536 56.7676 28V28C56.7676 43.464 44.2316 56 28.7676 56V56C13.3036 56 0.767578 43.464 0.767578 28V28Z" fill="#002237"/>
<path fill-rule="evenodd" clip-rule="evenodd" d="M40.3063 26.755L28.9768 6.80615V21.5016L40.3063 26.755ZM28.2328 21.5017L17.0603 26.6813L28.2328 6.81222V21.5017ZM16.6882 27.7144L28.2326 34.8721V22.3618L16.6882 27.7144ZM16.7662 30.2819L28.2329 47.4508V37.3881L16.7662 30.2819ZM28.9768 47.4508V37.3881L40.4435 30.2819L28.9768 47.4508ZM28.9768 22.3618V34.8721L40.5295 27.7182L28.9768 22.3618Z" fill="white"/>
</svg>
