<svg width="57" height="56" viewBox="0 0 57 56" fill="none" xmlns="http://www.w3.org/2000/svg">
<path d="M0.722046 28C0.722046 12.536 13.2581 0 28.722 0V0C44.186 0 56.722 12.536 56.722 28V28C56.722 43.464 44.186 56 28.722 56V56C13.2581 56 0.722046 43.464 0.722046 28V28Z" fill="#F1356E"/>
<path d="M37.6028 34.7952L46.4441 29.5059L44.4154 28.4439C43.8464 28.146 43.5206 27.5027 43.6049 26.8424L44.265 21.6609L40.5219 22.8011C39.695 23.053 38.8369 22.5204 38.6509 21.6403L38.2924 19.9438L34.7778 24.2502C34.2907 24.8472 33.3624 24.3913 33.4895 23.6174L34.9905 14.4802L32.6925 15.1381C32.0212 15.3303 31.3123 15.0105 30.9851 14.3676L28.5652 9.61928V9.61221L28.5635 9.61575L28.5617 9.61221V9.61928L26.1418 14.3676C25.8142 15.0103 25.1053 15.3302 24.4341 15.1381L22.1361 14.4802L23.6371 23.6174C23.7642 24.3911 22.8359 24.8472 22.3486 24.2504L18.834 19.944L18.4755 21.6404C18.2895 22.5208 17.4314 23.053 16.6045 22.8012L12.8614 21.6611L13.5215 26.8426C13.6058 27.5027 13.28 28.1461 12.711 28.4441L10.6823 29.5059L19.5236 34.7953C20.4395 35.3433 20.8408 36.5054 20.4714 37.5396L19.7156 39.6561L27.2914 38.9789C27.7107 38.9415 28.0675 39.2949 28.0552 39.7351L27.8165 48.2249H29.3065L29.0675 39.7347C29.0552 39.2943 29.412 38.9411 29.8313 38.9786L37.4107 39.6561L36.6549 37.5396C36.2857 36.5052 36.6869 35.343 37.6028 34.7952Z" fill="white"/>
</svg>
