<svg width="56" height="56" viewBox="0 0 56 56" fill="none" xmlns="http://www.w3.org/2000/svg">
<path fill-rule="evenodd" clip-rule="evenodd" d="M50.0511 39.345C49.0625 40.5035 43.7579 44.4295 35.2768 48.1773C32.913 49.2219 29.654 49.6447 27.8954 49.6395C26.1367 49.6344 22.8503 49.2241 20.4865 48.1796C12.0053 44.4317 6.70077 39.903 5.71221 38.7445C3.81607 36.5223 4.49707 13.7623 7.77005 10.3039C11.043 6.84555 24.0704 13.7623 24.0704 13.7623L27.8954 13.7563L31.6928 13.7601C31.6928 13.7601 44.7202 6.8433 47.9932 10.3017C51.2662 13.7601 51.9472 37.1228 50.0511 39.345ZM46.7857 23.4304C47.4682 23.2656 46.7396 14.7722 44.4533 13.3828C42.1671 11.9935 35.6471 15.6605 35.8631 16.4877C36.0791 17.315 46.1032 23.5952 46.7857 23.4304ZM11.3063 13.3852C9.02001 14.7745 8.29142 23.2676 8.9739 23.4324C9.65639 23.5972 19.6805 17.3172 19.8965 16.49C20.1125 15.6628 13.5925 11.9959 11.3063 13.3852ZM7.16983 38.2153C6.21895 36.5679 6.41397 33.8514 6.67704 33.6578C7.30458 33.196 14.5688 29.0509 18.4424 26.8405L18.4426 26.8404L18.4432 26.8401L18.4434 26.8399C19.634 26.1606 20.5041 25.6641 20.7625 25.5136C21.8614 24.8737 23.5395 26.327 24.0683 27.4848C24.5972 28.6427 24.04 31.977 24.04 31.977C24.04 31.977 21.7822 29.3923 20.7625 29.986C19.7427 30.5797 10.8582 35.7797 9.90735 36.3653C8.95653 36.9508 9.90735 40.1068 9.90735 40.1068C9.90735 40.1068 7.72804 39.1823 7.16983 38.2153ZM38.6974 41.4308C38.6915 37.719 33.2852 34.9939 27.8729 34.9939C22.4607 34.9939 17.0425 37.719 17.0484 41.4308C17.0543 45.1426 22.4746 47.8677 27.8935 47.8677C33.3124 47.8677 38.7034 45.1426 38.6974 41.4308ZM27.9742 44.7577C26.0965 44.7577 23.2354 41.7535 24.228 40.6766C25.2206 39.5997 30.816 39.6746 31.7358 40.6766C32.6555 41.6786 29.8519 44.7577 27.9742 44.7577ZM48.5894 38.2131C49.5403 36.5657 49.3453 33.8492 49.0822 33.6556C48.4547 33.1938 41.1906 29.0488 37.3169 26.8384L37.3166 26.8383L37.3161 26.8379C36.1254 26.1585 35.2552 25.662 34.9968 25.5115C33.8978 24.8716 32.2198 26.3249 31.691 27.4827C31.1621 28.6405 31.7193 31.9749 31.7193 31.9749C31.7193 31.9749 33.977 29.3901 34.9968 29.9838C36.0165 30.5775 44.9011 35.7775 45.8519 36.3631C46.8027 36.9486 45.8519 40.1046 45.8519 40.1046C45.8519 40.1046 48.0312 39.1801 48.5894 38.2131Z" fill="url(#paint0_linear)"/>
<defs>
<linearGradient id="paint0_linear" x1="4.66663" y1="9.33334" x2="44.573" y2="55.3028" gradientUnits="userSpaceOnUse">
<stop stop-color="#009FFF"/>
<stop offset="0.977905" stop-color="#00CDFF"/>
</linearGradient>
</defs>
</svg>
